<?xml version="1.0" standalone="no"?><!DOCTYPE svg PUBLIC "-//W3C//DTD SVG 1.1//EN" "http://www.w3.org/Graphics/SVG/1.1/DTD/svg11.dtd"><svg t="1603766875097" class="icon" viewBox="0 0 1024 1024" version="1.1" xmlns="http://www.w3.org/2000/svg" p-id="7030" xmlns:xlink="http://www.w3.org/1999/xlink" width="200" height="200"><defs><style type="text/css"></style></defs><path d="M378.727159 760.732991 378.727159 430.100712c0-15.626909-12.736069-28.317952-28.362978-28.317952-15.656585 0-28.364001 12.691043-28.364001 28.317952l0 330.632279c0 15.627932 12.707416 28.333302 28.364001 28.333302C365.99109 789.067316 378.727159 776.361947 378.727159 760.732991" p-id="7031" fill="#ffffff"></path><path d="M534.346449 809.254078 534.346449 337.850681c0-15.625886-12.707416-28.362978-28.362978-28.362978-15.626909 0-28.333302 12.738116-28.333302 28.362978L477.650169 809.254078c0 15.625886 12.706393 28.333302 28.333302 28.333302C521.639033 837.58738 534.346449 824.87894 534.346449 809.254078" p-id="7032" fill="#ffffff"></path><path d="M869.997022 348.294544l0-2.218528c0.061398-8.345062-2.796696-15.869433-8.025791-21.129226-4.743024-4.803399-10.942213-7.356548-18.08796-7.386224-15.930831 0-29.488615 12.919241-29.610388 28.210505l0.028653 2.4017c0 2.082428 0.031722 5.000897-0.028653 15.808034-0.029676 8.968256 0 13.939477 0.028653 19.212574 0.031722 6.566556 0.062422 13.604856-0.028653 29.41289-0.12075 25.870204-0.060375 52.045353 0 78.06803 0.061398 24.943089 0.12075 49.750077 0 74.099648-0.029676 7.480368-0.029676 11.219529 0 14.988366 0.028653 3.768837 0.061398 7.509021 0 15.046694-0.639566 126.376269-1.003863 212.468043-1.003863 239.918231 0 20.035312-4.892427 33.68417-13.375635 37.424354-4.590552 1.946328-13.162788 2.189875-20.761859 1.792832l-3.466961 0.029676-8.269337-0.090051-10.273994 0.060375c-3.466961 0.061398-7.02295 0.094144-10.640338 0.094144l-30.277584-0.153496-11.369955 0.060375c-27.54331 0.366344-55.543014 0.214894-83.45062 0.029676-27.055193-0.151449-54.020334-0.302899-80.377632-0.029676l-8.936533 0.061398-16.720823-0.12075-9.05933 0.060375c-103.361089 1.215688-181.886537 0.577145-226.969315 0.214894-13.862729-0.12075-24.563442-0.214894-31.890314-0.214894-26.66122 0-34.199916-9.363252-37.849026-17.509792-2.553149-5.776563-3.768837-12.890588-3.312442-19.669992 0.029676-0.607844 0-3.130294 0-3.15997L206.267319 347.381755c0.060375-16.432251-10.853186-28.379351-26.114774-28.484751-16.173354 0-30.461779 13.207813-30.461779 28.271904l0.061398 482.787678-0.121773 2.431376 0.060375 0.759293c-1.032516 15.990183 1.763157 31.982412 8.087189 46.269813 14.683421 33.075303 46.512337 51.253314 89.649809 51.253314 7.387247 0 18.149359 0.094144 32.012088 0.185218 25.596981 0.212848 61.742203 0.455371 106.978477 0.455371 34.960233 0 75.362408-0.152473 120.506585-0.64059l8.969279-0.060375 16.718777 0.122797 9.028631-0.063445c26.357298-0.273223 53.200666-0.151449 80.136132 0 27.967982 0.153496 56.089459 0.366344 83.784218 0l12.494569-0.060375 30.156834 0.091074 20.186761-0.121773 6.323009 0.060375 0 0.030699c2.645247 0.12382 5.288446 0.214894 7.90504 0.214894 13.769608 0 25.016767-2.28095 36.419468-7.297197 30.946826-13.375635 50.950416-48.276517 50.950416-88.86084l-0.091074-28.149107c-0.121773-41.070394-0.394996-114.396423 0.091074-211.526601 0.030699-7.93267 0.030699-11.733229 0-15.715937l0-14.317077c0.119727-24.382317 0.061398-49.218982 0-74.146721-0.091074-26.038026-0.151449-52.122101 0-77.992305 0.061398-15.398712 0.030699-22.527063 0-28.910447-0.030699-5.486968-0.061398-10.42749 0-19.684318C870.057397 353.339444 870.027721 350.375949 869.997022 348.294544" p-id="7033" fill="#ffffff"></path><path d="M655.491577 782.653233c0 15.625886 12.737092 28.333302 28.362978 28.333302 15.655562 0 28.364001-12.707416 28.364001-28.333302L712.218556 590.280878c0-15.626909-12.70844-28.365025-28.364001-28.365025-15.625886 0-28.362978 12.737092-28.362978 28.365025L655.491577 782.653233z" p-id="7034" fill="#ffffff"></path><path d="M683.854555 505.873466c15.626909 0 28.333302-12.737092 28.333302-28.364001l0-84.391039c0-15.626909-12.707416-28.333302-28.333302-28.333302-15.625886 0-28.362978 12.707416-28.362978 28.333302l0 84.391039C655.491577 493.136374 668.229692 505.873466 683.854555 505.873466" p-id="7035" fill="#ffffff"></path><path d="M866.896404 159.157883 623.145891 159.279656c-0.425695-0.151449-1.673106-1.246387-5.441942-6.415107l-1.552356-2.112104c-2.611477-3.678786-7.628748-10.80816-9.877975-13.69593-23.651676-30.658254-53.44319-44.36851-96.642061-44.36851-43.441395 0.030699-74.78424 14.074553-98.739838 44.110637-3.343141 4.179183-9.787924 13.452383-13.619182 18.939351-1.276063 1.823532-2.187829 3.207042-2.613524 3.753487l-243.506966 0.38067c-7.569396 0-14.713097 2.933819-20.00359 8.314363-5.411243 5.349845-8.299013 12.509918-8.299013 20.078291 0 15.595186 12.738116 28.257577 28.302603 28.257577l11.30958 0 237.57793-0.334621c15.625886 0 27.816532-6.824429 39.550785-22.00927 0.821715-1.155313 3.100618-4.423753 5.746888-8.193613 3.617387-5.258771 7.994068-11.507078 9.878998-13.878079 10.883885-13.634532 24.319895-22.692838 54.416354-22.723537 29.060873 0 40.584324 7.812943 51.680033 22.252817 1.765203 2.25025 6.476505 8.93858 9.028631 12.479219l1.673106 2.340301c15.384385 20.977777 30.188556 29.54899 51.133587 29.54899l243.781212-0.196475c15.594163 0 28.30158-12.722766 28.30158-28.3947C895.199007 171.850973 882.491591 159.157883 866.896404 159.157883" p-id="7036" fill="#ffffff"></path></svg>