<?xml version="1.0" standalone="no"?><!DOCTYPE svg PUBLIC "-//W3C//DTD SVG 1.1//EN" "http://www.w3.org/Graphics/SVG/1.1/DTD/svg11.dtd"><svg t="1603685418154" class="icon" viewBox="0 0 1024 1024" version="1.1" xmlns="http://www.w3.org/2000/svg" p-id="7034" xmlns:xlink="http://www.w3.org/1999/xlink" width="200" height="200"><defs><style type="text/css"></style></defs><path d="M538.118867 370.480846c-27.866674 0-50.52779 25.586748-50.52779 57.036018l0 59.471486c0 31.449269 22.661116 57.020668 50.52779 57.020668 27.868721 0 50.529837-25.571399 50.529837-57.020668l0-59.471486C588.648704 396.067594 565.987588 370.480846 538.118867 370.480846z" p-id="7035" fill="#1296db"></path><path d="M716.378807 370.480846c-27.866674 0-50.529837 25.586748-50.529837 57.036018l0 59.471486c0 31.449269 22.663162 57.020668 50.529837 57.020668 27.868721 0 50.529837-25.571399 50.529837-57.020668l0-59.471486C766.908644 396.067594 744.247528 370.480846 716.378807 370.480846z" p-id="7036" fill="#1296db"></path><path d="M507.802398 76.264964c-72.883961 0-145.43023 18.558681-209.862705 53.682643-35.33988-24.300452-95.989191-50.575886-122.984009-56.256258-3.721765-1.086751-6.874571-1.545192-10.964726-1.606591l-2.539846 0.076748c-1.316995 0.01535-2.097778 0.046049-2.894933 0.199545-8.849552 1.468444-16.550954 6.246261-21.666462 13.427824-4.777817 6.691399-6.752798 14.852266-5.465478 22.231327 0.322341 4.869914 0.948605 10.120498 3.276626 15.558347 21.545712 44.573171 18.960841 106.86796 17.174148 131.273812-49.737798 62.889329-62.730717 114.53457-64.921615 125.002992-8.037047 22.661116-17.143449 103.403045-17.143449 121.708969 0 250.409167 192.391798 446.553429 437.992449 446.553429 241.803161 0 438.529685-195.563024 438.529685-435.926394C946.332083 271.812639 749.605559 76.264964 507.802398 76.264964zM507.694951 885.735983l-5.77247 0.061398c-100.780311 0-194.58065-40.943504-264.111237-115.297956-67.923996-72.638367-105.32993-168.152744-105.32993-268.965801 0-7.65126 1.084705-20.810978 2.629897-35.247782 0.917906-6.930853 1.828648-14.406105 2.718925-22.944572 0.072655-0.568958 0.145309-1.12973 0.220011-1.694595 5.935176-55.638181 37.546128-117.515461 63.932078-154.933675 0.178055-0.298805-0.011256-0.245593 0.222057-0.598634 10.019191-15.174608 8.230452-30.619368 9.740852-35.80753 1.224898-29.016871-1.6158-55.749722-1.746784-56.941873l-0.00614 0.00614c-0.693802-13.679557-1.823532-28.180829-3.450589-42.201148 20.455891 10.107195 39.810704 23.596418 57.632605 40.162722 11.56029 9.784854 27.822672 11.990079 41.648562 5.084808 61.537542-37.805024 131.313721-57.788148 201.778586-57.788148 207.259414 0 375.87367 167.573553 375.87367 373.531322C883.676068 718.409047 718.522634 882.490056 507.694951 885.735983z" p-id="7037" fill="#1296db"></path></svg>